<svg id="Layer_1" enable-background="new 0 0 512 512" height="512" viewBox="0 0 512 512" width="512" xmlns="http://www.w3.org/2000/svg"><g><g id="XMLID_117_"><g id="XMLID_118_"><g id="XMLID_119_"><g id="XMLID_120_"><g id="XMLID_121_"><g id="XMLID_122_"><g id="XMLID_123_"><g id="XMLID_124_"><g id="XMLID_125_"><g id="XMLID_126_"><g id="XMLID_127_"><g id="XMLID_128_"><g id="XMLID_129_"><g id="XMLID_130_"><circle id="XMLID_131_" cx="256" cy="256" fill="#fd9827" r="256"/></g></g></g></g></g></g></g></g></g></g></g></g></g></g><path d="m512 256c0-29.664-5.063-58.142-14.342-84.638l-105.67-105.669s-71.818 20.471-83.155 50.641l-46.202-44.48-26.965 35.153-35.262-35.153-23.238 35.153-38.262-35.153h-32.227l34.323 120.902c0 19.622-11.755 49.034-11.755 49.034l32.907 33.059 2.862 177.005 58.042 58.042c10.786 1.385 21.781 2.104 32.944 2.104 141.385 0 256-114.615 256-256z" fill="#ea7b0c"/><g><g><path d="m151.529 247.353h66.251v87h-66.251z" fill="#ffe780"/><path d="m184.66 247.35h33.12v87h-33.12z" fill="#fbbe2c"/><path d="m184.655 458.307c-18.295 0-33.126-14.831-33.126-33.126v-119.827h66.251v119.828c.001 18.295-14.83 33.125-33.125 33.125z" fill="#605553"/><path d="m325.737 247.353h66.251v87h-66.251z" fill="#ffe780"/><path d="m358.86 247.35h33.13v87h-33.13z" fill="#fbbe2c"/><path d="m358.863 458.307c-18.295 0-33.126-14.831-33.126-33.126v-119.827h66.251v119.828c0 18.295-14.83 33.125-33.125 33.125z" fill="#605553"/><path d="m391.99 305.35v119.83c0 18.3-14.83 33.13-33.13 33.13v-152.96z" fill="#4c403f"/><path d="m391.988 252.353h-55.516c-20.288 0-36.734-16.447-36.734-36.734v-70.276c0-43.99 35.661-79.65 79.65-79.65h12.6z" fill="#eef9ff"/><path d="m230.405 71.853v84c0 8.284-6.716 15-15 15-8.284 0-15-6.716-15-15v-84h-31.5v84c0 8.284-6.716 15-15 15-8.284 0-15-6.716-15-15v-84h-32.227v120.902c0 35.676 28.921 64.598 64.598 64.598h26.758c35.676 0 64.598-28.921 64.598-64.598v-120.902z" fill="#eef9ff"/><path d="m262.63 71.85v120.91c0 28.78-18.83 53.17-44.85 61.51-6.22 2-12.86 3.08-19.75 3.08h-13.37v-185.5h15.75v84c0 8.29 6.71 15 14.99 15h.01c8.28 0 15-6.71 15-15v-84z" fill="#d2ebff"/></g><path d="m217.78 305.35v119.83c0 18.3-14.83 33.13-33.12 33.13v-152.96z" fill="#4c403f"/><path d="m391.99 65.69v186.66h-33.13v-183.98c6.55-1.75 13.43-2.68 20.53-2.68z" fill="#d2ebff"/></g></g></svg>